<svg width="28" height="27" viewBox="0 0 28 27" fill="none" xmlns="http://www.w3.org/2000/svg">
<g clip-path="url(#clip0_1_137)">
<path d="M24.8855 4.37158H1.34514C0.605245 4.37158 -6.10352e-05 4.97689 -6.10352e-05 5.71673V20.5136C-6.10352e-05 21.2534 0.605245 21.8588 1.34514 21.8588H24.8856C25.6254 21.8588 26.2308 21.2535 26.2308 20.5136V5.71673C26.2307 4.97689 25.6254 4.37158 24.8855 4.37158ZM24.3807 5.38039L13.8891 13.2497C13.7005 13.3933 13.4109 13.4831 13.1153 13.4818C12.8197 13.4831 12.5302 13.3933 12.3415 13.2497L1.84987 5.38039H24.3807ZM18.7765 13.769L24.4934 20.8311C24.4992 20.8382 24.5062 20.8436 24.5123 20.85H1.71836C1.72441 20.8433 1.73148 20.8382 1.73722 20.8311L7.45419 13.769C7.62935 13.5524 7.59616 13.2349 7.37919 13.0593C7.16263 12.8842 6.84515 12.9174 6.66993 13.134L1.0088 20.1272V6.01095L11.7365 14.0567C12.1397 14.3571 12.6303 14.4892 13.1152 14.4906C13.5995 14.4895 14.0905 14.3574 14.494 14.0567L25.2216 6.01095V20.1271L19.5607 13.134C19.3855 12.9174 19.0677 12.8841 18.8514 13.0593C18.6345 13.2345 18.6012 13.5524 18.7765 13.769Z" fill="#111111"/>
</g>
<defs>
<clipPath id="clip0_1_137">
<rect width="26.2308" height="26.2308" fill="white"/>
</clipPath>
</defs>
</svg>
