<svg width="37" height="36" viewBox="0 0 37 36" fill="none" xmlns="http://www.w3.org/2000/svg">
<circle cx="18.5893" cy="17.6556" r="17.6556" fill="#FCE467"/>
<g clip-path="url(#clip0_1_454)">
<path d="M26.9084 12.9493C26.827 12.8678 26.6912 12.8406 26.5825 12.8678L26.0394 13.0579C26.3653 12.6777 26.5825 12.2704 26.7183 11.8902C26.7726 11.7544 26.7455 11.6458 26.664 11.5643C26.5825 11.4828 26.4467 11.4556 26.3381 11.5099C25.5777 11.8358 24.9259 12.1074 24.3828 12.2703C24.3828 12.2975 24.3556 12.2703 24.3284 12.2703C23.8939 12.0259 22.8348 11.4828 22.0744 11.4828C20.1462 11.5099 18.5983 13.1394 18.5983 15.1219V15.2305C15.7739 14.6873 14.2259 13.8726 12.5422 12.1074L12.2707 11.8358L12.1077 12.1617C11.1844 13.9269 11.8361 15.5292 12.8953 16.6155C12.4064 16.5341 12.0805 16.3711 11.7818 16.1267C11.6732 16.0452 11.5374 16.0181 11.4016 16.0995C11.293 16.1539 11.2387 16.3168 11.2658 16.4526C11.646 17.7289 12.5965 18.7609 13.6285 19.3856C13.1397 19.3856 12.7323 19.3312 12.3249 19.0596C12.2163 19.0053 12.0534 19.0053 11.9448 19.0868C11.8361 19.1683 11.7818 19.3041 11.8361 19.4398C12.3249 20.8249 13.2755 21.5581 14.7963 21.7482C14.0087 22.2099 12.9768 22.5901 11.3745 22.6173C11.2115 22.6173 11.0757 22.7259 11.0214 22.8617C10.9671 23.0246 11.0214 23.1604 11.1301 23.269C12.1077 24.0566 14.2803 24.5183 16.9689 24.5183C21.7486 24.5183 25.6592 20.2546 25.6592 15.0132V14.9318C26.2567 14.633 26.7455 14.0627 26.9899 13.2752C27.0171 13.1665 26.9899 13.0307 26.9084 12.9493ZM25.279 14.4972L25.116 14.5515V15.0132C25.116 19.9559 21.4498 23.9751 16.9688 23.9751C14.4975 23.9751 12.8409 23.5678 11.9448 23.1333C13.8186 22.9975 14.9049 22.4 15.7468 21.7482L16.4257 21.2594H15.611C14.063 21.2594 13.1125 20.8249 12.5694 19.7929C13.0582 19.9559 13.5742 19.9559 14.1445 19.9287C14.3618 19.9015 14.579 19.9015 14.7963 19.9015L14.8777 19.3584C13.8458 19.0596 12.6237 18.1363 12.0262 16.8871C12.5694 17.1315 13.1668 17.1858 13.71 17.1858H14.5518L13.8729 16.697C13.3026 16.2896 11.6189 14.8503 12.4336 12.7863C14.1717 14.4972 15.8283 15.2848 18.8156 15.8279L19.1415 15.8823V15.1219C19.1415 13.4381 20.445 12.0531 22.0745 12.0259C22.6991 11.9988 23.7311 12.5691 24.0298 12.732C24.1927 12.8135 24.3557 12.8406 24.5186 12.7863C24.926 12.6506 25.4148 12.4604 25.9579 12.2432C25.7135 12.6506 25.3876 13.0308 24.9531 13.3838C24.8445 13.4653 24.8173 13.6282 24.8717 13.764C24.926 13.8998 25.0889 13.9541 25.2247 13.8998L26.2838 13.5468C26.0937 13.8998 25.795 14.3071 25.279 14.4972Z" fill="#111111"/>
</g>
<defs>
<clipPath id="clip0_1_454">
<rect width="16" height="16" fill="white" transform="translate(11.0001 10)"/>
</clipPath>
</defs>
</svg>
