<svg width="36" height="36" viewBox="0 0 36 36" fill="none" xmlns="http://www.w3.org/2000/svg">
<circle cx="18.2782" cy="17.6556" r="17.6556" fill="#FCE467"/>
<g clip-path="url(#clip0_1_448)">
<path d="M14.9126 24.8471H10.9995V14.7385H14.9126V24.8471ZM11.6516 24.195H14.2604V15.3907H11.6516V24.195Z" fill="#111111"/>
<path d="M25.9995 24.8471H22.0865V19.3037C22.0865 18.7635 21.6485 18.3254 21.1082 18.3254C20.5679 18.3254 20.13 18.7635 20.13 19.3037V24.8471H16.2169V14.7385H20.13V15.3947C20.7206 14.9677 21.431 14.738 22.1598 14.7385C24.2753 14.7385 25.9995 16.4545 25.9995 18.5659V24.8471ZM22.7386 24.195H25.3473V18.5659C25.3429 16.8093 23.9164 15.3884 22.1598 15.3907C21.3568 15.3907 20.6027 15.729 20.0403 16.3404L19.4777 16.9559V15.3907H16.8691V24.195H19.4777V19.3037C19.4777 18.4032 20.2077 17.6733 21.1082 17.6733C22.0086 17.6733 22.7386 18.4032 22.7386 19.3037V24.195Z" fill="#111111"/>
<path d="M12.956 14.0861C11.8754 14.0861 10.9995 13.2102 10.9995 12.1296C10.9995 11.0491 11.8754 10.1731 12.956 10.1731C14.0366 10.1731 14.9126 11.0491 14.9126 12.1296C14.9103 13.2093 14.0357 14.084 12.956 14.0861ZM12.956 10.8253C12.2357 10.8253 11.6516 11.4093 11.6516 12.1296C11.6516 12.8501 12.2357 13.434 12.956 13.434C13.6764 13.434 14.2604 12.8501 14.2604 12.1296C14.2604 11.4093 13.6764 10.8253 12.956 10.8253Z" fill="#111111"/>
</g>
<defs>
<clipPath id="clip0_1_448">
<rect width="15" height="15" fill="white" transform="translate(10.9995 10)"/>
</clipPath>
</defs>
</svg>
