<svg width="36" height="36" viewBox="0 0 36 36" fill="none" xmlns="http://www.w3.org/2000/svg">
<circle cx="17.9669" cy="17.6556" r="17.6556" fill="#FCE467"/>
<g clip-path="url(#clip0_1_437)">
<path d="M20.9394 9.99951H14.0602C11.8213 9.99951 9.99982 11.9424 9.99982 14.3306V21.6686C9.99982 24.0566 11.8213 25.9995 14.0602 25.9995H20.9395C23.1783 25.9995 24.9998 24.0566 24.9998 21.6686V14.3306C24.9998 11.9424 23.1783 9.99951 20.9394 9.99951ZM24.1204 21.6686C24.1204 23.5394 22.6935 25.0615 20.9394 25.0615H14.0602C12.3061 25.0615 10.8792 23.5394 10.8792 21.6686V14.3306C10.8792 12.4596 12.3061 10.9375 14.0602 10.9375H20.9395C22.6935 10.9375 24.1204 12.4596 24.1204 14.3306V21.6686Z" fill="#111111"/>
<path d="M17.4998 13.6245C15.2382 13.6245 13.3984 15.587 13.3984 17.9994C13.3984 20.4117 15.2382 22.3742 17.4998 22.3742C19.7614 22.3742 21.6013 20.4117 21.6013 17.9994C21.6013 15.587 19.7614 13.6245 17.4998 13.6245ZM17.4998 21.4363C15.7232 21.4363 14.2777 19.8945 14.2777 17.9994C14.2777 16.1044 15.7232 14.5625 17.4998 14.5625C19.2765 14.5625 20.7219 16.1044 20.7219 17.9994C20.7219 19.8945 19.2765 21.4363 17.4998 21.4363Z" fill="#111111"/>
<path d="M21.6993 12.0715C21.031 12.0715 20.4874 12.6515 20.4874 13.3643C20.4874 14.0771 21.031 14.6571 21.6993 14.6571C22.3676 14.6571 22.9113 14.0771 22.9113 13.3643C22.9113 12.6514 22.3676 12.0715 21.6993 12.0715ZM21.6993 13.719C21.516 13.719 21.3667 13.5598 21.3667 13.3643C21.3667 13.1686 21.516 13.0095 21.6993 13.0095C21.8827 13.0095 22.032 13.1686 22.032 13.3643C22.032 13.5598 21.8827 13.719 21.6993 13.719Z" fill="#111111"/>
</g>
<defs>
<clipPath id="clip0_1_437">
<rect width="15" height="16" fill="white" transform="translate(9.99976 10)"/>
</clipPath>
</defs>
</svg>
