<svg width="36" height="36" viewBox="0 0 36 36" fill="none" xmlns="http://www.w3.org/2000/svg">
<circle cx="17.6556" cy="17.6556" r="17.6556" fill="#FCE467"/>
<g clip-path="url(#clip0_1_443)">
<path d="M20.9247 12.0388H22.5881V9.00185H19.5652C19.313 8.99136 16.239 8.9326 15.4422 11.9709C15.4307 12.0028 15.176 12.7254 15.176 14.4133L12.4119 14.4217V17.607L15.1795 17.5989V26.0005H19.4071V17.6063H22.2051V14.4126H19.4071V13.4078C19.4071 12.7831 19.6704 12.0388 20.9247 12.0388ZM21.5056 15.1118V16.9064H18.7075V25.3006H15.879V16.8973L13.1114 16.9053V15.1191L15.8864 15.1111L15.879 14.7554C15.8427 12.9674 16.0976 12.2154 16.1092 12.1794C16.7968 9.56251 19.4225 9.69402 19.5351 9.70102L21.8886 9.70171V11.3396H20.9247C19.2902 11.3396 18.7079 12.4078 18.7079 13.4074V15.1118H21.5056Z" fill="#111111"/>
</g>
<defs>
<clipPath id="clip0_1_443">
<rect width="17" height="17" fill="white" transform="translate(9 9)"/>
</clipPath>
</defs>
</svg>
