<svg width="24" height="29" viewBox="0 0 24 29" fill="none" xmlns="http://www.w3.org/2000/svg">
<rect width="24" height="28.3821" rx="7" fill="#E47249"/>
<path d="M15.7632 11.0494C16.0756 10.5808 16.0756 9.81993 15.7632 9.3514C15.4509 8.88287 14.9436 8.88287 14.6313 9.3514L12 13.302L9.36623 9.35515C9.05388 8.88662 8.54662 8.88662 8.23427 9.35515C7.92191 9.82368 7.92191 10.5846 8.23427 11.0531L10.868 15L8.23676 18.9506C7.92441 19.4192 7.92441 20.1801 8.23676 20.6486C8.54912 21.1171 9.05638 21.1171 9.36873 20.6486L12 16.698L14.6338 20.6449C14.9461 21.1134 15.4534 21.1134 15.7657 20.6449C16.0781 20.1763 16.0781 19.4154 15.7657 18.9469L13.132 15L15.7632 11.0494Z" fill="white"/>
</svg>
